# MagicaVoxel @ Ephtracy

# group
o 

# material
mtllib box1.mtl
usemtl palette

# normals
vn -1 0 0
vn 1 0 0
vn 0 0 1
vn 0 0 -1
vn 0 -1 0
vn 0 1 0

# texcoords
vt 0.158203 0.5
vt 0.298828 0.5
vt 0.681641 0.5
vt 0.748047 0.5
vt 0.873047 0.5
vt 0.892578 0.5
vt 0.904297 0.5

# verts
v 0 2 0
v 0 2 -2
v 0 3.5 0
v 0 3.5 -2
v 0 3.8 0
v 0 3.8 -2
v 0 4 0
v 0 4 -2
v 0.5 3.4 0
v 0.5 3.4 -0.1
v 0.5 3.5 0
v 0.5 3.5 -0.1
v 1.6 3.4 0
v 1.6 3.4 -0.1
v 1.6 3.5 0
v 1.6 3.5 -0.1
v 0.4 3.4 0
v 0.4 3.4 -0.1
v 0.4 3.5 0
v 0.4 3.5 -0.1
v 1.5 3.4 0
v 1.5 3.4 -0.1
v 1.5 3.5 0
v 1.5 3.5 -0.1
v 2 2 0
v 2 2 -2
v 2 3.5 0
v 2 3.5 -2
v 2 3.8 0
v 2 3.8 -2
v 2 4 0
v 2 4 -2
v 0 2 0
v 0 3.5 0
v 0 3.8 0
v 0 4 0
v 0.1 3.5 0
v 0.1 3.8 0
v 0.3 2 0
v 0.3 3.2 0
v 0.3 3.3 0
v 0.3 3.6 0
v 0.3 3.7 0
v 0.3 4 0
v 0.4 3.4 0
v 0.4 3.5 0
v 0.5 2 0
v 0.5 3.2 0
v 0.5 3.4 0
v 0.5 3.5 0
v 0.5 3.7 0
v 0.5 4 0
v 0.6 3.3 0
v 0.6 3.6 0
v 0.7 3 0
v 0.7 3.1 0
v 1.3 3 0
v 1.3 3.1 0
v 1.4 3.3 0
v 1.4 3.6 0
v 1.5 2 0
v 1.5 3.2 0
v 1.5 3.4 0
v 1.5 3.5 0
v 1.5 3.7 0
v 1.5 4 0
v 1.6 3.4 0
v 1.6 3.5 0
v 1.7 2 0
v 1.7 3.2 0
v 1.7 3.3 0
v 1.7 3.6 0
v 1.7 3.7 0
v 1.7 4 0
v 1.9 3.5 0
v 1.9 3.8 0
v 2 2 0
v 2 3.5 0
v 2 3.8 0
v 2 4 0
v 0.4 3.4 -0.1
v 0.4 3.5 -0.1
v 0.5 3.4 -0.1
v 0.5 3.5 -0.1
v 1.5 3.4 -0.1
v 1.5 3.5 -0.1
v 1.6 3.4 -0.1
v 1.6 3.5 -0.1
v 0 2 -2
v 0 3.5 -2
v 0 3.8 -2
v 0 4 -2
v 0.1 3.5 -2
v 0.1 3.8 -2
v 0.3 2 -2
v 0.3 4 -2
v 0.5 2 -2
v 0.5 4 -2
v 0.9 3.9 -2
v 0.9 4 -2
v 1 3.9 -2
v 1 4 -2
v 1.5 2 -2
v 1.5 4 -2
v 1.7 2 -2
v 1.7 4 -2
v 1.9 3.5 -2
v 1.9 3.8 -2
v 2 2 -2
v 2 3.5 -2
v 2 3.8 -2
v 2 4 -2
v 0 2 0
v 0.3 2 0
v 0.5 2 0
v 1.5 2 0
v 1.7 2 0
v 2 2 0
v 0 2 -2
v 0.3 2 -2
v 0.5 2 -2
v 1.5 2 -2
v 1.7 2 -2
v 2 2 -2
v 0.4 3.5 0
v 0.5 3.5 0
v 1.5 3.5 0
v 1.6 3.5 0
v 0.4 3.5 -0.1
v 0.5 3.5 -0.1
v 1.5 3.5 -0.1
v 1.6 3.5 -0.1
v 0.4 3.4 0
v 0.5 3.4 0
v 1.5 3.4 0
v 1.6 3.4 0
v 0.4 3.4 -0.1
v 0.5 3.4 -0.1
v 1.5 3.4 -0.1
v 1.6 3.4 -0.1
v 0 4 0
v 0.3 4 0
v 0.5 4 0
v 1.5 4 0
v 1.7 4 0
v 2 4 0
v 0.6 4 -0.2
v 0.7 4 -0.2
v 1.1 4 -0.3
v 1.2 4 -0.3
v 0.9 4 -0.7
v 1 4 -0.7
v 1.1 4 -0.7
v 1.2 4 -0.7
v 1.3 4 -0.7
v 1.4 4 -0.7
v 0.6 4 -1
v 0.7 4 -1
v 1.3 4 -1.1
v 1.4 4 -1.1
v 0.7 4 -1.4
v 0.8 4 -1.4
v 1.2 4 -1.5
v 1.3 4 -1.5
v 0.7 4 -1.8
v 0.8 4 -1.8
v 1.2 4 -1.9
v 1.3 4 -1.9
v 0 4 -2
v 0.3 4 -2
v 0.5 4 -2
v 0.9 4 -2
v 1 4 -2
v 1.5 4 -2
v 1.7 4 -2
v 2 4 -2

# faces
f 3/7/1 2/7/1 1/7/1
f 4/7/1 2/7/1 3/7/1
f 5/4/1 4/4/1 3/4/1
f 6/4/1 4/4/1 5/4/1
f 7/7/1 6/7/1 5/7/1
f 8/7/1 6/7/1 7/7/1
f 11/2/1 10/2/1 9/2/1
f 12/2/1 10/2/1 11/2/1
f 15/2/1 14/2/1 13/2/1
f 16/2/1 14/2/1 15/2/1
f 17/2/2 18/2/2 19/2/2
f 19/2/2 18/2/2 20/2/2
f 21/2/2 22/2/2 23/2/2
f 23/2/2 22/2/2 24/2/2
f 25/7/2 26/7/2 27/7/2
f 27/7/2 26/7/2 28/7/2
f 27/4/2 28/4/2 29/4/2
f 29/4/2 28/4/2 30/4/2
f 29/7/2 30/7/2 31/7/2
f 31/7/2 30/7/2 32/7/2
f 37/7/3 34/7/3 33/7/3
f 37/4/3 35/4/3 34/4/3
f 38/7/3 36/7/3 35/7/3
f 38/4/3 35/4/3 37/4/3
f 39/7/3 37/7/3 33/7/3
f 39/7/3 38/7/3 37/7/3
f 40/7/3 38/7/3 39/7/3
f 41/7/3 38/7/3 40/7/3
f 42/7/3 38/7/3 41/7/3
f 43/7/3 38/7/3 42/7/3
f 44/7/3 36/7/3 38/7/3
f 44/7/3 38/7/3 43/7/3
f 45/2/3 42/2/3 41/2/3
f 46/2/3 42/2/3 45/2/3
f 47/6/3 40/6/3 39/6/3
f 48/7/3 41/7/3 40/7/3
f 48/6/3 40/6/3 47/6/3
f 49/2/3 45/2/3 41/2/3
f 50/2/3 42/2/3 46/2/3
f 51/7/3 43/7/3 42/7/3
f 51/6/3 44/6/3 43/6/3
f 52/6/3 44/6/3 51/6/3
f 53/2/3 50/2/3 49/2/3
f 53/2/3 49/2/3 41/2/3
f 53/7/3 41/7/3 48/7/3
f 53/7/3 48/7/3 47/7/3
f 54/7/3 52/7/3 51/7/3
f 54/2/3 50/2/3 53/2/3
f 54/2/3 42/2/3 50/2/3
f 54/7/3 51/7/3 42/7/3
f 55/7/3 53/7/3 47/7/3
f 55/7/3 54/7/3 53/7/3
f 56/7/3 54/7/3 55/7/3
f 57/7/3 55/7/3 47/7/3
f 57/3/3 56/3/3 55/3/3
f 58/7/3 54/7/3 56/7/3
f 58/3/3 56/3/3 57/3/3
f 59/7/3 58/7/3 57/7/3
f 59/7/3 54/7/3 58/7/3
f 60/7/3 52/7/3 54/7/3
f 60/7/3 54/7/3 59/7/3
f 61/7/3 59/7/3 57/7/3
f 61/7/3 57/7/3 47/7/3
f 62/7/3 59/7/3 61/7/3
f 63/2/3 60/2/3 59/2/3
f 64/2/3 60/2/3 63/2/3
f 65/7/3 52/7/3 60/7/3
f 66/7/3 52/7/3 65/7/3
f 67/2/3 63/2/3 59/2/3
f 68/2/3 60/2/3 64/2/3
f 69/6/3 62/6/3 61/6/3
f 70/7/3 59/7/3 62/7/3
f 70/6/3 62/6/3 69/6/3
f 71/2/3 67/2/3 59/2/3
f 71/7/3 59/7/3 70/7/3
f 71/2/3 68/2/3 67/2/3
f 72/2/3 60/2/3 68/2/3
f 72/2/3 68/2/3 71/2/3
f 72/7/3 65/7/3 60/7/3
f 73/6/3 66/6/3 65/6/3
f 73/7/3 65/7/3 72/7/3
f 74/6/3 66/6/3 73/6/3
f 75/7/3 70/7/3 69/7/3
f 75/7/3 71/7/3 70/7/3
f 75/7/3 74/7/3 73/7/3
f 75/7/3 73/7/3 72/7/3
f 75/7/3 72/7/3 71/7/3
f 76/7/3 74/7/3 75/7/3
f 77/7/3 75/7/3 69/7/3
f 78/4/3 76/4/3 75/4/3
f 78/7/3 75/7/3 77/7/3
f 79/7/3 74/7/3 76/7/3
f 79/4/3 76/4/3 78/4/3
f 80/7/3 74/7/3 79/7/3
f 83/1/3 82/1/3 81/1/3
f 84/1/3 82/1/3 83/1/3
f 87/1/3 86/1/3 85/1/3
f 88/1/3 86/1/3 87/1/3
f 89/7/4 90/7/4 93/7/4
f 90/4/4 91/4/4 93/4/4
f 91/7/4 92/7/4 94/7/4
f 93/4/4 91/4/4 94/4/4
f 89/7/4 93/7/4 95/7/4
f 93/7/4 94/7/4 95/7/4
f 94/7/4 92/7/4 96/7/4
f 95/7/4 94/7/4 96/7/4
f 95/6/4 96/6/4 97/6/4
f 97/6/4 96/6/4 98/6/4
f 97/7/4 98/7/4 99/7/4
f 99/7/4 98/7/4 100/7/4
f 97/7/4 99/7/4 101/7/4
f 99/5/4 100/5/4 101/5/4
f 101/5/4 100/5/4 102/5/4
f 97/7/4 101/7/4 103/7/4
f 101/7/4 102/7/4 103/7/4
f 103/7/4 102/7/4 104/7/4
f 103/6/4 104/6/4 105/6/4
f 105/6/4 104/6/4 106/6/4
f 105/7/4 106/7/4 107/7/4
f 107/7/4 106/7/4 108/7/4
f 105/7/4 107/7/4 109/7/4
f 107/4/4 108/4/4 110/4/4
f 109/7/4 107/7/4 110/7/4
f 108/7/4 106/7/4 111/7/4
f 110/4/4 108/4/4 111/4/4
f 111/7/4 106/7/4 112/7/4
f 119/7/5 114/7/5 113/7/5
f 120/6/5 115/6/5 114/6/5
f 120/7/5 114/7/5 119/7/5
f 121/7/5 116/7/5 115/7/5
f 121/6/5 115/6/5 120/6/5
f 122/6/5 117/6/5 116/6/5
f 122/7/5 116/7/5 121/7/5
f 123/7/5 118/7/5 117/7/5
f 123/6/5 117/6/5 122/6/5
f 124/7/5 118/7/5 123/7/5
f 129/2/5 126/2/5 125/2/5
f 130/2/5 126/2/5 129/2/5
f 131/2/5 128/2/5 127/2/5
f 132/2/5 128/2/5 131/2/5
f 133/2/6 134/2/6 137/2/6
f 137/2/6 134/2/6 138/2/6
f 135/2/6 136/2/6 139/2/6
f 139/2/6 136/2/6 140/2/6
f 143/7/6 144/7/6 147/7/6
f 147/7/6 144/7/6 148/7/6
f 148/7/6 144/7/6 149/7/6
f 149/7/6 144/7/6 150/7/6
f 148/7/6 149/7/6 151/7/6
f 151/7/6 149/7/6 152/7/6
f 149/5/6 150/5/6 153/5/6
f 152/7/6 149/7/6 153/7/6
f 150/7/6 144/7/6 154/7/6
f 153/5/6 150/5/6 154/5/6
f 154/7/6 144/7/6 155/7/6
f 155/7/6 144/7/6 156/7/6
f 143/7/6 147/7/6 157/7/6
f 147/5/6 148/5/6 157/5/6
f 148/7/6 151/7/6 158/7/6
f 157/5/6 148/5/6 158/5/6
f 155/5/6 156/5/6 159/5/6
f 152/7/6 153/7/6 159/7/6
f 153/7/6 154/7/6 159/7/6
f 154/7/6 155/7/6 159/7/6
f 156/7/6 144/7/6 160/7/6
f 159/5/6 156/5/6 160/5/6
f 158/7/6 151/7/6 161/7/6
f 157/7/6 158/7/6 161/7/6
f 161/7/6 151/7/6 162/7/6
f 152/7/6 159/7/6 163/7/6
f 159/7/6 160/7/6 163/7/6
f 163/7/6 160/7/6 164/7/6
f 161/5/6 162/5/6 165/5/6
f 157/7/6 161/7/6 165/7/6
f 162/7/6 151/7/6 166/7/6
f 165/5/6 162/5/6 166/5/6
f 163/5/6 164/5/6 167/5/6
f 152/7/6 163/7/6 167/7/6
f 164/7/6 160/7/6 168/7/6
f 167/5/6 164/5/6 168/5/6
f 141/7/6 142/7/6 169/7/6
f 142/6/6 143/6/6 170/6/6
f 169/7/6 142/7/6 170/7/6
f 157/7/6 165/7/6 171/7/6
f 170/6/6 143/6/6 171/6/6
f 143/7/6 157/7/6 171/7/6
f 165/7/6 166/7/6 171/7/6
f 151/5/6 152/5/6 172/5/6
f 171/7/6 166/7/6 172/7/6
f 166/7/6 151/7/6 172/7/6
f 152/7/6 167/7/6 173/7/6
f 172/5/6 152/5/6 173/5/6
f 167/7/6 168/7/6 173/7/6
f 168/7/6 160/7/6 174/7/6
f 173/7/6 168/7/6 174/7/6
f 144/6/6 145/6/6 174/6/6
f 160/7/6 144/7/6 174/7/6
f 145/7/6 146/7/6 175/7/6
f 174/6/6 145/6/6 175/6/6
f 175/7/6 146/7/6 176/7/6
