# MagicaVoxel @ Ephtracy

# group
o 

# material
mtllib box5.mtl
usemtl palette

# normals
vn -1 0 0
vn 1 0 0
vn 0 0 1
vn 0 0 -1
vn 0 -1 0
vn 0 1 0

# texcoords
vt 0.958984 0.5
vt 0.990234 0.5
vt 0.994141 0.5

# verts
v 0 2 0
v 0 2 -2
v 0 3.2 -0.1
v 0 3.2 -0.5
v 0 3.3 -0.1
v 0 3.3 -0.4
v 0 3.3 -0.5
v 0 3.3 -0.7
v 0 3.4 -0.4
v 0 3.4 -0.6
v 0 3.4 -0.7
v 0 3.4 -1
v 0 3.5 -0.6
v 0 3.5 -0.9
v 0 3.5 -1
v 0 3.5 -1.2
v 0 3.6 -0.9
v 0 3.6 -1.1
v 0 3.6 -1.2
v 0 3.6 -1.5
v 0 3.7 -1.1
v 0 3.7 -1.4
v 0 3.7 -1.5
v 0 3.7 -2
v 0 3.8 -1.4
v 0 3.8 -2
v 0 4 0
v 0 4 -2
v 2 2 0
v 2 2 -2
v 2 3.2 -0.1
v 2 3.2 -0.5
v 2 3.3 -0.1
v 2 3.3 -0.4
v 2 3.3 -0.5
v 2 3.3 -0.7
v 2 3.4 -0.4
v 2 3.4 -0.6
v 2 3.4 -0.7
v 2 3.4 -1
v 2 3.5 -0.6
v 2 3.5 -0.9
v 2 3.5 -1
v 2 3.5 -1.2
v 2 3.6 -0.9
v 2 3.6 -1.1
v 2 3.6 -1.2
v 2 3.6 -1.5
v 2 3.7 -1.1
v 2 3.7 -1.4
v 2 3.7 -1.5
v 2 3.7 -2
v 2 3.8 -1.4
v 2 3.8 -2
v 2 4 0
v 2 4 -2
v 0 2 0
v 0 4 0
v 0.3 2.8 0
v 0.3 2.9 0
v 0.4 3.4 0
v 0.4 3.7 0
v 0.5 2.6 0
v 0.5 2.8 0
v 0.5 2.9 0
v 0.5 3.5 0
v 0.5 3.6 0
v 0.6 2.5 0
v 0.6 2.6 0
v 0.6 2.7 0
v 0.6 2.8 0
v 0.6 3.5 0
v 0.6 3.6 0
v 0.7 2.6 0
v 0.7 2.7 0
v 0.7 3.4 0
v 0.7 3.7 0
v 0.8 2.6 0
v 0.8 2.8 0
v 0.9 2.8 0
v 0.9 2.9 0
v 1.1 2.8 0
v 1.1 2.9 0
v 1.2 2.6 0
v 1.2 2.8 0
v 1.3 2.6 0
v 1.3 2.7 0
v 1.3 3.4 0
v 1.3 3.7 0
v 1.4 2.5 0
v 1.4 2.6 0
v 1.4 2.7 0
v 1.4 2.8 0
v 1.4 3.5 0
v 1.4 3.6 0
v 1.5 2.6 0
v 1.5 2.8 0
v 1.5 2.9 0
v 1.5 3.5 0
v 1.5 3.6 0
v 1.6 3.4 0
v 1.6 3.7 0
v 1.7 2.8 0
v 1.7 2.9 0
v 2 2 0
v 2 4 0
v 0 2 -2
v 0 3.7 -2
v 0 3.8 -2
v 0 4 -2
v 2 2 -2
v 2 3.7 -2
v 2 3.8 -2
v 2 4 -2
v 0 2 0
v 2 2 0
v 0 2 -2
v 2 2 -2
v 0 4 0
v 2 4 0
v 0 4 -2
v 2 4 -2

# faces
f 3/1/1 2/1/1 1/1/1
f 4/1/1 2/1/1 3/1/1
f 5/1/1 3/1/1 1/1/1
f 5/3/1 4/3/1 3/3/1
f 6/3/1 4/3/1 5/3/1
f 7/1/1 2/1/1 4/1/1
f 7/3/1 4/3/1 6/3/1
f 8/1/1 2/1/1 7/1/1
f 9/1/1 6/1/1 5/1/1
f 9/3/1 7/3/1 6/3/1
f 9/3/1 8/3/1 7/3/1
f 10/3/1 8/3/1 9/3/1
f 11/1/1 2/1/1 8/1/1
f 11/3/1 8/3/1 10/3/1
f 12/1/1 2/1/1 11/1/1
f 13/1/1 10/1/1 9/1/1
f 13/3/1 11/3/1 10/3/1
f 13/3/1 12/3/1 11/3/1
f 14/3/1 12/3/1 13/3/1
f 15/1/1 2/1/1 12/1/1
f 15/3/1 12/3/1 14/3/1
f 16/1/1 2/1/1 15/1/1
f 17/1/1 14/1/1 13/1/1
f 17/3/1 15/3/1 14/3/1
f 17/3/1 16/3/1 15/3/1
f 18/3/1 16/3/1 17/3/1
f 19/1/1 2/1/1 16/1/1
f 19/3/1 16/3/1 18/3/1
f 20/1/1 2/1/1 19/1/1
f 21/1/1 18/1/1 17/1/1
f 21/3/1 19/3/1 18/3/1
f 21/3/1 20/3/1 19/3/1
f 22/3/1 20/3/1 21/3/1
f 23/1/1 2/1/1 20/1/1
f 23/3/1 20/3/1 22/3/1
f 24/1/1 2/1/1 23/1/1
f 25/1/1 22/1/1 21/1/1
f 25/3/1 23/3/1 22/3/1
f 25/3/1 24/3/1 23/3/1
f 26/3/1 24/3/1 25/3/1
f 27/1/1 5/1/1 1/1/1
f 27/1/1 9/1/1 5/1/1
f 27/1/1 26/1/1 25/1/1
f 27/1/1 25/1/1 21/1/1
f 27/1/1 21/1/1 17/1/1
f 27/1/1 17/1/1 13/1/1
f 27/1/1 13/1/1 9/1/1
f 28/1/1 26/1/1 27/1/1
f 29/1/2 30/1/2 31/1/2
f 31/1/2 30/1/2 32/1/2
f 29/1/2 31/1/2 33/1/2
f 31/3/2 32/3/2 33/3/2
f 33/3/2 32/3/2 34/3/2
f 32/1/2 30/1/2 35/1/2
f 34/3/2 32/3/2 35/3/2
f 35/1/2 30/1/2 36/1/2
f 33/1/2 34/1/2 37/1/2
f 34/3/2 35/3/2 37/3/2
f 35/3/2 36/3/2 37/3/2
f 37/3/2 36/3/2 38/3/2
f 36/1/2 30/1/2 39/1/2
f 38/3/2 36/3/2 39/3/2
f 39/1/2 30/1/2 40/1/2
f 37/1/2 38/1/2 41/1/2
f 38/3/2 39/3/2 41/3/2
f 39/3/2 40/3/2 41/3/2
f 41/3/2 40/3/2 42/3/2
f 40/1/2 30/1/2 43/1/2
f 42/3/2 40/3/2 43/3/2
f 43/1/2 30/1/2 44/1/2
f 41/1/2 42/1/2 45/1/2
f 42/3/2 43/3/2 45/3/2
f 43/3/2 44/3/2 45/3/2
f 45/3/2 44/3/2 46/3/2
f 44/1/2 30/1/2 47/1/2
f 46/3/2 44/3/2 47/3/2
f 47/1/2 30/1/2 48/1/2
f 45/1/2 46/1/2 49/1/2
f 46/3/2 47/3/2 49/3/2
f 47/3/2 48/3/2 49/3/2
f 49/3/2 48/3/2 50/3/2
f 48/1/2 30/1/2 51/1/2
f 50/3/2 48/3/2 51/3/2
f 51/1/2 30/1/2 52/1/2
f 49/1/2 50/1/2 53/1/2
f 50/3/2 51/3/2 53/3/2
f 51/3/2 52/3/2 53/3/2
f 53/3/2 52/3/2 54/3/2
f 29/1/2 33/1/2 55/1/2
f 33/1/2 37/1/2 55/1/2
f 53/1/2 54/1/2 55/1/2
f 49/1/2 53/1/2 55/1/2
f 45/1/2 49/1/2 55/1/2
f 41/1/2 45/1/2 55/1/2
f 37/1/2 41/1/2 55/1/2
f 55/1/2 54/1/2 56/1/2
f 59/1/3 58/1/3 57/1/3
f 60/1/3 58/1/3 59/1/3
f 61/1/3 58/1/3 60/1/3
f 62/1/3 58/1/3 61/1/3
f 63/1/3 59/1/3 57/1/3
f 64/2/3 60/2/3 59/2/3
f 64/1/3 59/1/3 63/1/3
f 65/1/3 61/1/3 60/1/3
f 65/2/3 60/2/3 64/2/3
f 66/3/3 62/3/3 61/3/3
f 67/3/3 62/3/3 66/3/3
f 68/1/3 63/1/3 57/1/3
f 69/2/3 64/2/3 63/2/3
f 69/1/3 63/1/3 68/1/3
f 70/2/3 64/2/3 69/2/3
f 71/1/3 65/1/3 64/1/3
f 71/2/3 64/2/3 70/2/3
f 72/3/3 66/3/3 61/3/3
f 72/1/3 67/1/3 66/1/3
f 73/3/3 62/3/3 67/3/3
f 73/1/3 67/1/3 72/1/3
f 74/2/3 70/2/3 69/2/3
f 74/2/3 69/2/3 68/2/3
f 75/1/3 71/1/3 70/1/3
f 75/2/3 70/2/3 74/2/3
f 76/3/3 72/3/3 61/3/3
f 76/1/3 71/1/3 75/1/3
f 76/1/3 61/1/3 65/1/3
f 76/3/3 73/3/3 72/3/3
f 76/1/3 65/1/3 71/1/3
f 77/1/3 58/1/3 62/1/3
f 77/3/3 73/3/3 76/3/3
f 77/3/3 62/3/3 73/3/3
f 78/1/3 76/1/3 75/1/3
f 78/1/3 75/1/3 74/1/3
f 78/1/3 77/1/3 76/1/3
f 78/2/3 74/2/3 68/2/3
f 79/1/3 77/1/3 78/1/3
f 80/2/3 79/2/3 78/2/3
f 80/1/3 77/1/3 79/1/3
f 81/1/3 77/1/3 80/1/3
f 82/2/3 80/2/3 78/2/3
f 82/2/3 81/2/3 80/2/3
f 83/1/3 77/1/3 81/1/3
f 83/2/3 81/2/3 82/2/3
f 84/2/3 78/2/3 68/2/3
f 84/2/3 82/2/3 78/2/3
f 85/1/3 83/1/3 82/1/3
f 85/2/3 82/2/3 84/2/3
f 86/2/3 84/2/3 68/2/3
f 86/1/3 85/1/3 84/1/3
f 87/1/3 85/1/3 86/1/3
f 88/1/3 77/1/3 83/1/3
f 88/1/3 85/1/3 87/1/3
f 88/1/3 83/1/3 85/1/3
f 89/1/3 58/1/3 77/1/3
f 89/1/3 77/1/3 88/1/3
f 90/1/3 68/1/3 57/1/3
f 90/2/3 87/2/3 86/2/3
f 90/2/3 86/2/3 68/2/3
f 91/2/3 87/2/3 90/2/3
f 92/1/3 88/1/3 87/1/3
f 92/2/3 87/2/3 91/2/3
f 93/1/3 88/1/3 92/1/3
f 94/3/3 89/3/3 88/3/3
f 95/3/3 89/3/3 94/3/3
f 96/1/3 91/1/3 90/1/3
f 96/2/3 92/2/3 91/2/3
f 96/2/3 93/2/3 92/2/3
f 97/1/3 88/1/3 93/1/3
f 97/2/3 93/2/3 96/2/3
f 98/1/3 88/1/3 97/1/3
f 99/1/3 95/1/3 94/1/3
f 99/3/3 94/3/3 88/3/3
f 100/3/3 89/3/3 95/3/3
f 100/1/3 95/1/3 99/1/3
f 101/3/3 99/3/3 88/3/3
f 101/1/3 88/1/3 98/1/3
f 101/3/3 100/3/3 99/3/3
f 102/3/3 89/3/3 100/3/3
f 102/3/3 100/3/3 101/3/3
f 102/1/3 58/1/3 89/1/3
f 103/2/3 98/2/3 97/2/3
f 103/1/3 97/1/3 96/1/3
f 104/1/3 101/1/3 98/1/3
f 104/2/3 98/2/3 103/2/3
f 104/1/3 102/1/3 101/1/3
f 105/1/3 103/1/3 96/1/3
f 105/1/3 96/1/3 90/1/3
f 105/1/3 104/1/3 103/1/3
f 105/1/3 90/1/3 57/1/3
f 106/1/3 102/1/3 104/1/3
f 106/1/3 104/1/3 105/1/3
f 106/1/3 58/1/3 102/1/3
f 107/1/4 108/1/4 111/1/4
f 108/3/4 109/3/4 112/3/4
f 111/1/4 108/1/4 112/1/4
f 109/1/4 110/1/4 113/1/4
f 112/3/4 109/3/4 113/3/4
f 113/1/4 110/1/4 114/1/4
f 117/1/5 116/1/5 115/1/5
f 118/1/5 116/1/5 117/1/5
f 119/1/6 120/1/6 121/1/6
f 121/1/6 120/1/6 122/1/6
